<svg id="Calque_1" data-name="Calque 1" xmlns="http://www.w3.org/2000/svg" viewBox="0 0 28.83 53.25"><defs><style>.cls-1{fill:#1d1d1b;}</style></defs><path class="cls-1" d="M18.65,5.38h2.27q11.94,0,19.25,7.84A26.65,26.65,0,0,1,47.48,32,26.55,26.55,0,0,1,40.2,50.81q-7.28,7.81-19.28,7.81H18.65ZM21.49,7.5h-.57V56.42h.57a22.16,22.16,0,0,0,17-7.17A24.48,24.48,0,0,0,45.14,32,24.74,24.74,0,0,0,38.5,14.75,22.05,22.05,0,0,0,21.49,7.5Z" transform="translate(-18.65 -5.38)"/><path class="cls-1" d="M32,22.11l7.87,16.13h-.73l-3-6H27.73l-2.94,6h-.65Zm-.06,1.45L28,31.63h7.9Z" transform="translate(-18.65 -5.38)"/></svg>